<svg width="100" height="100" viewBox="0 0 100 100" fill="none" xmlns="http://www.w3.org/2000/svg">
<path d="M49.791 0C22.2226 0 0 22.2692 0 49.8952C0 77.5213 22.2226 100 49.791 100C77.3593 100 100 77.5213 100 49.8952C100 22.2692 77.3593 0 49.791 0ZM49.791 8.40712C73.7171 8.40712 91.1882 25.919 91.1882 49.8952C91.1882 73.8715 73.7171 91.3834 49.791 91.3834C25.8648 91.3834 8.39373 73.8715 8.39373 49.8952C8.39373 25.919 25.8648 8.40712 49.791 8.40712ZM40.9112 24.0689C36.9112 21.7469 31.899 24.6329 31.899 29.258V70.547C31.899 75.1728 36.9125 78.0586 40.9125 75.7353L76.4656 55.085C80.4482 52.7719 80.4475 47.0198 76.4644 44.7077L40.9112 24.0689Z" fill="white"/>
</svg>
